<?xml version="1.0" standalone="no"?>
<!DOCTYPE svg PUBLIC "-//W3C//DTD SVG 20010904//EN"
 "http://www.w3.org/TR/2001/REC-SVG-20010904/DTD/svg10.dtd">
<svg version="1.0" xmlns="http://www.w3.org/2000/svg"
 width="560.000000pt" height="560.000000pt" viewBox="0 0 560.000000 560.000000"
 preserveAspectRatio="xMidYMid meet">
<metadata>
Created by potrace 1.14, written by Peter Selinger 2001-2017
</metadata>
<g transform="translate(0.000000,560.000000) scale(0.100000,-0.100000)"
fill="#000000" stroke="none">
<path d="M246 5585 c4 -8 10 -15 15 -15 5 0 9 -5 9 -11 0 -6 14 -31 30 -55 17
-24 44 -64 60 -88 17 -24 30 -49 30 -55 0 -6 3 -11 8 -11 4 0 18 -20 32 -45
14 -25 28 -45 32 -45 5 0 8 -6 8 -14 0 -8 6 -21 13 -28 10 -11 263 -399 292
-449 6 -10 29 -45 53 -79 23 -34 42 -64 42 -65 0 -2 32 -51 70 -109 39 -58 70
-110 70 -116 0 -5 5 -10 10 -10 6 0 10 -4 10 -9 0 -12 61 -105 72 -109 4 -2 8
-9 8 -16 0 -7 8 -21 18 -32 10 -10 20 -23 22 -29 2 -5 24 -41 49 -80 25 -38
48 -74 51 -80 5 -10 69 -109 149 -230 25 -38 50 -73 54 -76 5 -3 9 -10 9 -15
0 -5 34 -60 74 -122 41 -62 74 -115 74 -118 0 -3 5 -10 11 -17 6 -7 40 -57 75
-112 36 -55 88 -136 117 -180 28 -44 54 -85 57 -90 3 -6 35 -56 73 -113 37
-56 67 -106 67 -111 0 -5 5 -11 12 -13 7 -3 -3 -27 -27 -64 -21 -32 -37 -61
-36 -63 2 -2 -4 -8 -13 -13 -9 -5 -16 -13 -16 -18 0 -5 -11 -26 -25 -47 -28
-42 -30 -46 -77 -118 -18 -27 -36 -51 -40 -53 -5 -2 -8 -8 -8 -14 0 -5 -14
-29 -30 -53 -17 -24 -30 -48 -30 -53 0 -6 -3 -12 -8 -14 -4 -1 -47 -64 -94
-138 -48 -74 -92 -140 -97 -147 -6 -7 -11 -17 -11 -22 0 -5 -6 -16 -13 -23 -7
-7 -34 -47 -60 -88 -26 -41 -55 -85 -64 -98 -9 -13 -22 -32 -27 -43 -6 -10
-55 -86 -109 -169 -53 -83 -97 -153 -97 -156 0 -3 7 -4 15 -1 8 4 16 3 19 -1
5 -8 96 -6 104 2 2 3 15 1 28 -4 14 -6 26 -6 29 0 4 6 13 7 24 1 10 -6 23 -6
31 -1 8 5 21 5 30 0 9 -5 23 -4 32 1 10 6 19 6 23 0 3 -7 15 -7 29 -1 13 5 27
6 30 3 8 -8 102 -7 115 2 6 3 11 3 11 -2 0 -9 51 -10 66 -1 5 3 18 2 29 -2 11
-4 30 -4 43 1 12 5 22 5 22 1 0 -6 54 -7 70 -2 3 1 21 1 40 1 19 -1 41 -1 48
-1 6 0 19 0 27 0 8 0 23 0 33 0 25 0 72 -1 110 -3 17 -1 32 1 32 5 0 3 13 3
30 -2 18 -5 30 -5 30 0 0 6 10 6 25 0 15 -6 26 -6 30 0 4 6 13 7 23 1 11 -6
24 -6 34 0 10 6 19 6 23 0 3 -7 15 -7 29 -1 13 5 27 6 30 3 8 -9 66 -9 66 -1
0 4 12 3 28 -1 48 -12 92 1 110 34 9 17 23 34 30 38 6 4 12 13 12 19 0 6 16
33 36 60 19 27 39 60 44 74 5 13 14 24 20 24 5 0 10 6 10 14 0 8 6 21 13 28 7
7 29 39 47 70 19 32 38 58 42 58 5 0 8 6 8 13 0 7 8 22 18 33 10 10 19 21 19
24 3 14 39 70 46 70 4 0 7 6 7 14 0 8 6 21 13 28 7 7 24 31 37 53 13 22 30 46
36 53 7 6 16 21 19 32 3 11 11 20 17 20 6 0 9 2 6 5 -4 4 75 131 152 245 5 8
23 35 39 60 16 25 67 104 114 177 82 126 85 133 74 162 -6 17 -15 31 -19 31
-4 0 -8 7 -8 15 0 8 -4 15 -10 15 -5 0 -10 5 -10 11 0 6 -17 36 -39 67 -21 32
-60 91 -86 132 -27 41 -90 139 -142 218 -51 78 -93 147 -93 152 0 5 -6 13 -14
17 -8 4 -15 11 -16 15 -2 15 -35 68 -42 68 -5 0 -8 4 -8 10 0 5 -23 43 -50 84
-28 41 -50 77 -50 81 0 3 -5 11 -11 18 -15 17 -189 286 -189 293 0 3 -6 12
-12 19 -24 26 -34 40 -41 55 -13 25 -85 138 -178 278 -27 41 -49 75 -49 77 0
2 -36 58 -80 124 -44 67 -80 123 -80 127 0 3 -6 12 -12 19 -30 33 -38 45 -36
49 2 3 -5 15 -14 26 -10 11 -18 25 -18 30 0 6 -4 10 -10 10 -5 0 -10 5 -10 10
0 6 -23 44 -50 85 -27 41 -50 78 -50 83 0 5 -9 17 -20 27 -11 10 -20 23 -20
30 0 7 -9 20 -20 30 -11 10 -20 22 -20 26 0 4 -23 43 -51 86 -28 43 -64 98
-80 123 -16 25 -32 50 -36 55 -5 6 -14 22 -22 38 -8 15 -18 27 -23 27 -4 0 -8
5 -8 10 0 6 -10 26 -23 45 l-22 35 -742 0 c-656 0 -742 -2 -737 -15z"/>
<path d="M3418 4922 c-33 -3 -40 -9 -89 -85 -28 -45 -56 -85 -61 -88 -6 -3 -9
-9 -9 -13 1 -3 -32 -58 -74 -121 -41 -64 -75 -120 -75 -125 0 -6 -4 -10 -10
-10 -5 0 -10 -7 -10 -15 0 -8 -3 -15 -8 -15 -4 0 -16 -16 -26 -35 l-19 -35 36
-55 c21 -30 37 -59 37 -64 0 -5 3 -11 8 -13 4 -1 36 -48 71 -103 35 -55 81
-126 102 -157 22 -32 39 -62 39 -68 0 -5 3 -10 8 -10 7 0 42 -55 41 -66 0 -3
9 -14 21 -24 12 -10 21 -22 21 -27 1 -14 92 -153 101 -153 4 0 8 -9 8 -20 0
-11 5 -20 10 -20 6 0 10 -7 10 -15 0 -8 5 -15 10 -15 6 0 10 -7 10 -15 0 -8 5
-15 10 -15 6 0 10 -4 10 -9 0 -7 58 -100 154 -243 17 -26 33 -48 36 -48 3 0
14 17 25 38 11 20 22 39 25 42 3 3 26 37 50 75 25 39 48 72 52 73 5 2 8 10 8
18 0 8 5 14 12 14 6 0 8 3 5 7 -4 3 0 14 9 24 8 9 38 53 64 96 27 43 54 83 60
90 5 7 15 24 22 38 6 14 15 25 20 25 4 0 8 7 8 15 0 8 5 15 10 15 6 0 10 7 10
15 0 8 5 15 10 15 6 0 10 5 10 11 0 7 16 34 35 60 19 27 35 53 35 57 0 5 8 17
18 28 9 10 26 36 37 57 11 20 23 37 27 37 5 0 8 4 8 9 0 5 24 45 52 88 29 43
57 86 63 96 36 62 129 203 136 205 5 2 9 9 9 16 0 7 11 26 25 42 14 16 25 35
25 42 0 6 5 12 10 12 6 0 10 5 10 12 0 6 11 26 25 44 14 18 25 35 25 39 0 3 5
11 10 18 6 7 31 44 55 82 25 39 49 75 54 81 5 7 11 20 13 29 3 16 -9 18 -128
18 -72 0 -135 -2 -140 -5 -5 -3 -18 -4 -29 -1 -24 4 -1084 9 -1137 5z"/>
<path d="M3720 2333 c-99 -156 -179 -278 -190 -290 -6 -7 -8 -13 -5 -13 3 0 1
-6 -5 -12 -13 -15 -197 -297 -225 -345 -11 -18 -23 -33 -28 -33 -4 0 -6 -4 -3
-9 3 -4 -3 -16 -14 -26 -11 -10 -20 -24 -20 -32 0 -7 -4 -13 -10 -13 -5 0 -10
-4 -10 -10 0 -8 -105 -176 -128 -205 -4 -5 -16 -24 -26 -41 -18 -31 -18 -31
10 -80 15 -27 31 -51 34 -54 3 -3 17 -23 30 -45 13 -22 28 -44 33 -50 4 -5 31
-47 60 -92 29 -45 99 -155 157 -244 58 -90 112 -174 120 -188 8 -14 20 -31 27
-38 6 -7 15 -22 18 -33 3 -11 10 -20 14 -20 5 0 14 -13 21 -30 7 -16 16 -30
21 -30 5 0 9 -4 9 -10 0 -12 131 -214 142 -218 5 -2 6 -8 2 -13 -3 -5 -1 -9 4
-9 5 0 15 -13 22 -29 6 -16 21 -38 32 -48 19 -17 58 -18 744 -18 399 -1 729 2
735 6 7 4 5 12 -5 22 -9 8 -16 18 -16 21 0 4 -27 47 -60 97 -33 50 -60 95 -60
100 0 5 -4 9 -10 9 -5 0 -10 7 -10 15 0 8 -4 15 -10 15 -5 0 -10 6 -10 13 0 7
-9 23 -20 35 -11 12 -20 24 -20 27 0 3 -18 33 -40 65 -22 32 -40 63 -40 69 0
5 -4 11 -8 13 -8 3 -212 316 -212 324 0 3 -5 10 -11 17 -6 7 -38 55 -72 108
-34 52 -87 133 -117 180 -30 46 -57 89 -60 94 -3 6 -40 63 -82 128 -43 65 -78
120 -78 123 0 3 -9 14 -20 26 -11 12 -20 28 -20 35 0 7 -4 13 -10 13 -5 0 -10
4 -10 9 0 5 -36 63 -80 130 -44 66 -80 123 -80 126 0 3 -5 11 -11 18 -22 25
-189 287 -189 297 0 6 -4 10 -10 10 -5 0 -10 7 -10 15 0 8 -4 15 -10 15 -5 0
-10 7 -10 15 0 8 -4 15 -9 15 -5 0 -14 13 -21 29 -6 16 -19 37 -28 47 -9 11
-23 31 -31 47 -8 15 -18 27 -23 27 -5 0 -31 -35 -58 -77z"/>
</g>
</svg>
